<?xml version="1.0" encoding="utf-8"?>
<!-- Generator: Adobe Illustrator 19.2.1, SVG Export Plug-In . SVG Version: 6.00 Build 0)  -->
<svg version="1.1" id="Layer_1" xmlns="http://www.w3.org/2000/svg" xmlns:xlink="http://www.w3.org/1999/xlink" x="0px" y="0px"
	 viewBox="0 0 166.5 225.9" style="enable-background:new 0 0 166.5 225.9;" xml:space="preserve">
<style type="text/css">
	.st0{fill:#2574A9;}
	.st1{fill:#2C3E50;}
</style>
<g>
	<g>
		<polygon class="st0" points="133.1,142.4 84.3,142.4 162.3,7.2 135.4,7.2 43.9,165.7 49.8,165.7 70.8,165.7 156.4,165.7 
			156.4,159.9 156.4,159.9 156.4,130.1 133.1,130.1 		"/>
		<polygon class="st1" points="119,7.2 98,7.2 12.5,7.2 12.5,13 12.5,13 12.5,42.8 35.8,42.8 35.8,30.5 84.6,30.5 6.5,165.7 
			33.4,165.7 124.9,7.2 		"/>
	</g>
	<g>
		<path class="st1" d="M22.9,179.7v3l-10.5,37.6H8l10.1-36.7H6.9v-3.8H22.9z"/>
		<path class="st1" d="M37.8,216.5h9.3v3.8H33.3v-40.6h4.4V216.5z"/>
		<path class="st1" d="M62.1,216.5h11.2v3.8H57.6v-40.6h15.2v3.8H62.1v13.7h8.7v3.8h-8.7V216.5z"/>
		<path class="st1" d="M97.9,220.3L96.2,210H88l-1.5,10.3H82l6.3-40.6h7.1l7,40.6H97.9z M88.5,206.1h7.1l-3.8-23.3L88.5,206.1z"/>
		<path class="st1" d="M113.5,179.7h12.9c3.4,0,5.2,1.7,5.2,5.2v30.3c0,3.4-1.7,5.2-5.2,5.2h-12.9V179.7z M127,214.4v-28.8
			c0-0.9-0.1-1.4-0.4-1.7c-0.3-0.2-0.8-0.4-1.6-0.4h-7v32.9h7c0.8,0,1.4-0.1,1.6-0.4C126.9,215.9,127,215.3,127,214.4z"/>
		<path class="st1" d="M155.5,214.4v-11.1c0-0.9-0.1-1.4-0.4-1.7c-0.3-0.2-0.8-0.4-1.6-0.4h-4.4c-3.4,0-5.2-1.7-5.2-5.2v-11.3
			c0-3.4,1.7-5.2,5.2-5.2h5.7c3.4,0,5.2,1.7,5.2,5.2v6.3h-4.5v-5.5c0-0.9-0.1-1.4-0.4-1.7c-0.2-0.2-0.8-0.4-1.7-0.4h-3
			c-0.9,0-1.4,0.1-1.7,0.4c-0.2,0.2-0.4,0.8-0.4,1.7v9.9c0,0.8,0.1,1.4,0.4,1.6c0.2,0.3,0.8,0.4,1.7,0.4h4.4c3.4,0,5.2,1.7,5.2,5.2
			v12.5c0,3.4-1.7,5.2-5.2,5.2h-5.7c-3.4,0-5.2-1.7-5.2-5.2v-6.3h4.5v5.5c0,0.9,0.1,1.4,0.4,1.7c0.2,0.2,0.8,0.4,1.7,0.4h2.9
			c0.8,0,1.4-0.1,1.6-0.4C155.4,215.9,155.5,215.3,155.5,214.4z"/>
	</g>
</g>
</svg>
